<?xml version="1.0" standalone="no"?>
<!DOCTYPE svg PUBLIC "-//W3C//DTD SVG 20010904//EN"
 "http://www.w3.org/TR/2001/REC-SVG-20010904/DTD/svg10.dtd">
<svg version="1.0" xmlns="http://www.w3.org/2000/svg"
 width="152.000000pt" height="152.000000pt" viewBox="0 0 152.000000 152.000000"
 preserveAspectRatio="xMidYMid meet">
<metadata>
Created by potrace 1.11, written by Peter Selinger 2001-2013
</metadata>
<g transform="translate(0.000000,152.000000) scale(0.100000,-0.100000)"
fill="#000000" stroke="none">
<path d="M668 1223 c-39 -44 -235 -313 -232 -316 3 -2 29 1 59 7 53 11 54 12
108 95 l54 83 7 -36 c8 -42 25 -46 63 -16 15 11 28 18 30 16 3 -3 -11 -33 -31
-69 -43 -77 -45 -91 -11 -85 14 3 28 1 31 -4 3 -5 -10 -50 -30 -101 -32 -83
-40 -94 -77 -115 -22 -13 -39 -25 -37 -26 1 -2 37 1 79 6 l75 10 35 91 35 92
64 6 c36 3 77 13 91 22 53 35 66 117 25 163 -20 24 -32 28 -89 32 -58 4 -65 6
-58 21 8 15 51 131 51 138 0 13 -32 -6 -104 -62 l-84 -65 -6 38 c-18 102 -20
106 -48 75z m272 -198 c17 -20 6 -83 -17 -106 -24 -23 -88 -37 -81 -18 3 8 15
42 28 77 24 64 44 78 70 47z"/>
<path d="M836 834 c-3 -9 -6 -17 -6 -20 0 -2 38 -3 84 -2 47 1 88 0 91 -3 3
-3 -28 -44 -70 -90 -41 -46 -75 -87 -75 -91 0 -5 30 -8 67 -8 36 0 63 -3 59
-7 -4 -5 -129 -8 -277 -9 -260 -1 -299 -5 -299 -33 0 -3 119 -6 265 -6 l264 0
-21 -22 c-20 -21 -25 -22 -292 -23 -255 -1 -272 -2 -290 -20 -20 -19 -18 -19
190 -19 115 0 237 0 272 -1 l62 0 -20 -20 c-11 -11 -23 -19 -28 -19 -4 1 -125
1 -268 0 -242 -1 -264 -2 -285 -20 -24 -19 -21 -19 245 -20 148 0 270 -2 272
-4 2 -2 -23 -30 -56 -62 -33 -33 -60 -62 -60 -66 0 -24 77 23 313 192 l272
194 -150 5 c-82 3 -143 8 -133 12 16 6 224 151 243 169 5 5 -68 9 -177 9 -160
0 -187 -2 -192 -16z m-18 -251 c-71 -2 -185 -2 -255 0 -71 1 -13 3 127 3 140
0 198 -2 128 -3z m-168 -83 c0 -9 -277 -7 -285 2 -4 4 59 6 139 6 80 -1 146
-5 146 -8z m80 0 c0 -5 -14 -8 -30 -6 -44 5 -46 13 -5 14 19 1 35 -3 35 -8z
m125 0 c-6 -10 -102 -6 -112 3 -3 4 21 7 55 6 34 -1 59 -5 57 -9z m-505 -78
c0 -4 -15 -7 -34 -7 -19 0 -32 3 -29 8 6 9 63 9 63 -1z m60 -1 c0 -6 -10 -8
-21 -6 -33 6 -36 15 -6 15 15 0 27 -4 27 -9z m340 0 c0 -9 -316 -8 -325 0 -3
4 69 6 160 6 91 0 165 -3 165 -6z"/>
</g>
</svg>
