<?xml version="1.0" encoding="utf-8"?>
<!-- Generator: Adobe Illustrator 17.0.0, SVG Export Plug-In . SVG Version: 6.00 Build 0)  -->
<!DOCTYPE svg PUBLIC "-//W3C//DTD SVG 1.1//EN" "http://www.w3.org/Graphics/SVG/1.1/DTD/svg11.dtd">
<svg version="1.1" id="Слой_1" xmlns="http://www.w3.org/2000/svg" xmlns:xlink="http://www.w3.org/1999/xlink" x="0px" y="0px"
	 width="133.498px" height="87.372px" viewBox="0 0 133.498 87.372" enable-background="new 0 0 133.498 87.372"
	 xml:space="preserve">
<path fill="#D87A68" d="M39.645,73.716l0.025,0.315l1.431,3.421l-1.369-4.865L39.645,73.716z M34.703,76.377l0.986,4.087
	l-0.664-8.283L34.703,76.377z M29.204,76.507l0.497,6.496l0.944-12.289L29.204,76.507z M44.264,71.792l1.486,2.211l-1.582-3.414
	L44.264,71.792z M24.254,74.806l-0.543,5.658l2.592-10.42L24.254,74.806z M28.634,69.05l0.025,0.33l0.048-0.5L28.634,69.05z
	 M47.781,68.073l2.17,2.331l-2.563-3.728L47.781,68.073z M25.069,66.312l-0.042,0.445l0.153-0.617L25.069,66.312z M20.058,71.277
	l-1.607,6.476l5.156-11.988L20.058,71.277z M21.908,63.819l-0.019,0.078l0.048-0.111L21.908,63.819z M50.534,64.115l1.605,1.234
	l-2.057-2.208L50.534,64.115z M16.046,68.58l-2.396,5.573l7.244-11.247L16.046,68.58z M13.998,63.753L9.6,70.854l6.388-7.477
	l-3.254,2.642l4.032-4.514L13.998,63.753z M55.831,61.71l0.27,0.144l-0.492-0.375L55.831,61.71z M19.513,60.516l-0.645,1.5
	l1.216-1.963L19.513,60.516z M12.106,59.687l-0.42,0.47l0.897-0.739L12.106,59.687z M10.913,61.023L6.15,66.354l10.684-8.673
	L10.913,61.023z M18.256,56.879l-0.185,0.298l0.261-0.215l0.228-0.255L18.256,56.879z M10.776,55.816l-7.325,6.038l11.679-6.593
	l-4.08,1.541l4.747-2.883L10.776,55.816z M58.346,52.144l0.605,0.109l-1.281-0.472L58.346,52.144z M11.726,51.025l-1.064,0.645
	l2.14-0.875L11.726,51.025z M10.259,51.916L1.8,57.052l9.266-3.499l4.596-2.791L10.259,51.916z M13.035,47.162L0.6,52.253
	l6.793-1.451l9.299-3.807L13.035,47.162z M0.3,42.802l13.781,1.163L0.3,47.302l3.146-0.144l13.058-3.162L1.266,42.71L0.3,42.802z
	 M14.041,41.48l2.463-0.234L4.408,38.348L0.15,38.152L14.041,41.48z M55.548,38.188l-0.159,0.067l3.414-0.322l0.298-0.08
	L55.548,38.188z M12.11,38.027l4.275,0.196l-9.238-3.68L0,33.202L12.11,38.027z M10.349,33.576l0.878,0.164l-1.818-0.725
	L10.349,33.576z M59.359,32.912l-0.048,0.028l0.089-0.038L59.359,32.912z M10.024,29.144l0.073,0.028l-0.123-0.073L10.024,29.144z
	 M9.327,32.967l5.686,1.066l-3.986-2.373L0.15,27.503L9.327,32.967z M8.66,27.906l5.129,1.96L9.4,27.253l3.9,1.49L0.451,20.454
	L8.66,27.906z M52.477,18.588l-0.611,1.041l1.787-2.089L52.477,18.588z M11.611,18.609l1.531,1.33l-2.465-2.931L11.611,18.609z
	 M28.73,16.781l0.122,0.28l-0.072-0.922L28.73,16.781z M8.314,22.359l4.101,2.646l-5.381-4.886l5.818,3.755L0.75,13.365
	L8.314,22.359z M47.895,16.908l-0.525,2.18l3.642-5.824L47.895,16.908z M9.41,14.835l1.636,1.42L8.4,13.103L9.41,14.835z
	 M56.338,15.147l-1.504,2.561l3.967-4.756L56.338,15.147z M15.81,16.399l3.389,4.038l-4.949-7.934L15.81,16.399z M43.956,14.352
	l-0.126,1.459l1.471-3.609L43.956,14.352z M20.264,14.766l2.852,4.572l-3.766-8.636L20.264,14.766z M39.519,12.266l0.069,0.981
	l0.613-2.545L39.519,12.266z M24.604,12.188l1.661,3.811L24.3,8.302L24.604,12.188z M34.606,10.718l0.141,2.021l0.09,0.35
	l0.413-4.787L34.606,10.718z M29.268,9.892l1.125,4.406L29.7,4.369L29.268,9.892z"/>
<polygon fill="#E94E1B" points="36.283,4.035 37.652,23.662 41.834,7.968 40.353,25.124 46.785,10.368 42.996,26.081 51.885,11.868 
	45.865,26.643 57.734,12.768 49.521,26.756 65.385,12.618 51.152,29.681 65.984,21.168 51.152,33.112 66.135,27.318 51.098,36.093 
	65.984,32.568 50.984,38.906 65.683,37.518 51.152,41.437 65.984,42.318 51.098,43.968 65.834,46.969 50.984,46.555 65.535,51.918 
	50.365,49.2 64.334,56.719 49.578,51.563 62.683,61.518 48.285,53.868 59.834,65.868 46.709,55.782 56.535,70.069 44.853,57.524 
	52.334,73.668 42.66,59.268 47.683,77.118 40.691,60.393 42.273,80.129 37.879,61.913 36.285,82.668 34.727,62.305 30.295,80.129 
	32.141,60.899 25.034,77.418 29.496,59.438 20.234,73.819 27.19,57.637 16.184,70.518 25.278,55.836 12.734,66.018 23.59,53.868 
	10.034,61.518 22.184,51.506 8.384,56.719 21.227,48.918 7.184,51.918 20.834,46.331 6.884,46.969 20.665,43.631 6.884,42.468 
	20.665,41.156 6.734,37.818 20.609,38.456 6.584,32.868 20.778,35.531 6.734,27.168 20.665,32.493 7.034,20.118 20.721,28.95 
	7.333,13.031 23.14,26.756 14.984,12.768 26.627,26.643 20.834,12.168 29.439,25.968 25.934,10.368 32.196,24.731 30.884,7.968 
	34.781,23.235 "/>
<polygon fill="#BE1622" points="33.859,0 32.19,21.334 27.859,4.371 29.316,22.995 22.359,7.037 26.254,24.37 16.692,9.037 
	23.129,25.12 10.192,9.704 19.254,25.245 1.692,9.996 16.567,27.683 1.359,17.871 16.504,31.62 1.025,25.704 16.629,34.995 
	0.858,32.037 16.442,38.245 1.025,37.537 16.504,41.245 1.192,42.704 16.504,43.995 1.192,47.704 16.692,46.995 1.525,53.204 
	17.129,49.87 2.858,58.538 18.192,52.745 4.691,63.872 19.754,55.37 7.692,68.872 21.629,57.557 11.526,73.872 23.754,59.557 
	16.026,77.538 26.317,61.557 21.359,81.538 29.254,63.182 27.204,84.549 32.129,64.745 33.859,87.372 35.63,64.307 40.513,84.549 
	38.755,62.62 46.525,81.204 40.943,61.37 51.693,77.372 43.381,59.432 56.359,73.372 45.443,57.495 60.025,68.704 47.193,55.37 
	63.193,63.872 48.631,52.807 65.025,58.538 49.505,50.182 66.359,53.204 50.193,47.245 66.693,47.704 50.318,44.37 66.859,42.537 
	50.38,41.558 66.525,37.204 50.193,38.745 66.859,31.704 50.318,35.62 67.025,25.871 50.38,32.308 66.859,19.037 50.38,28.495 
	66.193,9.537 48.568,25.245 57.693,9.704 44.506,25.12 51.193,8.704 41.318,24.495 45.525,7.037 38.38,23.433 40.025,4.371 
	35.38,21.808 "/>
<path fill="#D87A68" d="M44.168,70.589l-1.605-3.465l-1.62-5.754l0.414,0.616l2.624,6.277L44.168,70.589z M44.419,73.719
	l-0.823-2.922l0.668,0.995L44.419,73.719 M55,73.753l-4.441-6.61l2.743,2.946L55,73.753 M22.9,73.903l0.835-1.941l-0.261,1.05
	L22.9,73.903 M50.351,77.202l-2.024-4.841l1.139,1.696L50.351,77.202 M27.701,77.503l0.293-1.181l-0.062,0.643L27.701,77.503
	 M32.961,80.214l0.195-2.035l0.073,0.956L32.961,80.214 M44.939,80.214l-1.598-6.627l1.32,3.159L44.939,80.214 M38.951,82.753
	l-0.524-6.849l0.797,3.299L38.951,82.753"/>
<polygon fill="#C84139" points="44.264,71.791 43.596,70.797 42.562,67.124 44.168,70.588 "/>
<polygon fill="#CE2E21" points="43.981,68.263 41.357,61.986 43.765,65.571 "/>
<polygon fill="#D87A68" points="39.484,71.708 39.731,72.586 39.905,70.317 39.107,67.006 "/>
<polygon fill="#C84139" points="39.645,73.715 39.732,72.586 39.484,71.708 "/>
<polygon fill="#CE2E21" points="39.906,70.317 39.107,67.006 38.756,62.62 40.227,66.139 "/>
<polygon fill="#D87A68" points="35.055,71.795 35.36,70.571 35.255,69.196 "/>
<polygon fill="#CE2E21" points="35.359,70.57 35.254,69.196 35.629,64.307 36.263,66.935 "/>
<path fill="#D87A68" d="M30.677,70.583l0.869-3.498l-0.182,1.9L30.677,70.583z M18.85,70.602l0.51-0.823l-0.196,0.455L18.85,70.602"
	/>
<polygon fill="#CE2E21" points="31.546,67.085 31.364,68.985 32.289,66.836 32.128,64.745 "/>
<path fill="#D87A68" d="M47.387,66.676l-1.995-2.902l-0.655-1.412l2.471,3.677L47.387,66.676z M48.395,70.255l-1.404-3.03
	l0.79,0.848L48.395,70.255"/>
<polygon fill="#C84139" points="47.781,68.073 46.991,67.225 45.393,63.775 47.388,66.676 "/>
<polygon fill="#CE2E21" points="47.208,66.04 44.737,62.362 43.38,59.433 46.201,62.462 "/>
<path fill="#D87A68" d="M51.649,66.521l-2.259-3.286l1.144,0.88L51.649,66.521z M59.201,70.153l-6.824-7.328l3.786,2.91
	L59.201,70.153"/>
<polygon fill="#C84139" points="50.534,64.115 49.39,63.235 47.184,60.028 50.082,63.14 "/>
<polygon fill="#CE2E21" points="50.082,63.14 47.184,60.028 45.443,57.495 48.586,59.911 "/>
<path fill="#D87A68" d="M62.5,65.952l-9.932-7.634l-0.182-0.189l5.291,2.811L62.5,65.952z M15.4,66.102l3.053-3.417l-1.169,1.888
	L15.4,66.102"/>
<path fill="#CE2E21" d="M52.568,58.318l-0.39-0.3l0.208,0.111L52.568,58.318z M25.513,62.805l0.804-1.248l-0.108,0.433
	L25.513,62.805 M28.146,65.757l1.108-2.575l-0.097,1.005L28.146,65.757"/>
<polygon fill="#D87A68" points="53.646,62.075 50.639,58.95 51.264,59.282 52.243,60.035 "/>
<polygon fill="#C84139" points="50.638,58.95 51.264,59.282 50.091,58.381 "/>
<polygon fill="#CE2E21" points="52.242,60.035 50.09,58.381 47.192,55.37 50.095,56.913 "/>
<polygon fill="#D87A68" points="65.351,61.602 56.844,57.082 55.996,56.439 57.749,57.051 54.502,55.304 53.419,54.481 
	58.157,56.137 "/>
<polygon fill="#C84139" points="57.749,57.052 55.996,56.439 54.501,55.304 "/>
<polygon fill="#CE2E21" points="56.844,57.083 50.951,53.952 53.165,56.253 48.631,52.808 53.419,54.482 "/>
<polygon fill="#D87A68" points="12.7,61.602 18.07,57.177 17.915,57.428 15.697,59.911 "/>
<polygon fill="#C84139" points="18.071,57.177 17.915,57.428 18.332,56.962 "/>
<path fill="#D87A68" d="M57.669,51.781l-0.71-0.262l0.336,0.06L57.669,51.781z M66.999,56.802l-7.164-2.503L54.58,51.47l3.765,0.675
	L66.999,56.802"/>
<polygon fill="#C84139" points="58.345,52.144 54.58,51.469 53.53,50.904 56.959,51.519 57.669,51.78 "/>
<polygon fill="#CE2E21" points="59.836,54.298 52.244,51.645 52.295,51.684 49.506,50.182 53.531,50.904 "/>
<polygon fill="#D87A68" points="15.13,55.261 15.146,55.255 15.158,55.245 "/>
<polygon fill="#C84139" points="11.05,56.802 15.797,53.919 17.587,53.243 15.158,55.246 15.13,55.261 "/>
<polygon fill="#CE2E21" points="15.797,53.919 16.972,53.205 18.192,52.745 17.587,53.243 "/>
<polygon fill="#D87A68" points="68.201,52.003 63.455,51.152 53.072,47.325 55.709,47.399 "/>
<polygon fill="#CE2E21" points="63.455,51.152 58.274,50.224 50.193,47.245 53.072,47.325 "/>
<polygon fill="#D87A68" points="9.85,52.003 10.259,51.916 10.663,51.67 "/>
<polygon fill="#C84139" points="10.258,51.916 10.662,51.671 12.801,50.795 17.129,49.87 15.661,50.762 "/>
<polygon fill="#D87A68" points="68.499,47.052 62.697,46.891 62.649,46.881 65.833,46.97 52.1,44.173 66.858,42.538 65.005,42.428 
	65.983,42.319 51.151,41.438 63.77,38.035 68.351,37.603 53.819,41.521 68.649,42.402 53.763,44.052 "/>
<path fill="#CE2E21" d="M65.005,42.427l-14.625-0.87l12.889-3.476l0.501-0.047l-12.619,3.403l14.832,0.881L65.005,42.427z
	 M65.833,46.969l-3.184-0.089l-12.332-2.51l1.783-0.198L65.833,46.969"/>
<polygon fill="#D87A68" points="51.861,38.536 62.135,34.195 68.65,32.653 55.548,38.188 "/>
<polygon fill="#C84139" points="51.861,38.535 51.702,38.603 55.388,38.255 55.548,38.188 "/>
<polygon fill="#CE2E21" points="50.193,38.745 59.47,34.825 62.136,34.194 51.701,38.603 "/>
<polygon fill="#D87A68" points="9.503,37.927 12.167,38.049 12.111,38.027 9.399,37.902 "/>
<polygon fill="#C84139" points="12.166,38.049 16.441,38.244 16.385,38.222 12.11,38.026 "/>
<path fill="#D87A68" d="M54.631,34.031l5.841-3.408l8.328-3.221l-9.442,5.51L54.631,34.031z M56.342,34.194l2.969-1.254l-1.59,0.928
	L56.342,34.194"/>
<polygon fill="#C84139" points="52.994,34.987 54.632,34.031 59.359,32.912 59.311,32.94 56.342,34.194 "/>
<polygon fill="#CE2E21" points="50.318,35.62 55.757,32.446 60.472,30.623 52.994,34.986 "/>
<polygon fill="#D87A68" points="9.408,33.015 9.326,32.966 9.25,32.952 "/>
<polygon fill="#C84139" points="16.034,34.641 11.227,33.739 9.408,33.015 9.326,32.966 15.012,34.033 "/>
<polygon fill="#CE2E21" points="16.629,34.995 12.378,34.198 11.227,33.739 16.034,34.641 "/>
<polygon fill="#D87A68" points="53.913,30.942 59.55,27.653 56.437,28.856 59.005,26.788 68.65,21.253 59.118,28.929 "/>
<polygon fill="#C84139" points="53.786,30.991 56.437,28.856 59.55,27.652 53.913,30.942 "/>
<polygon fill="#CE2E21" points="50.38,32.308 54.395,29.075 53.82,29.765 59.005,26.788 53.786,30.991 "/>
<polygon fill="#D87A68" points="13.419,28.82 13.359,28.766 13.3,28.743 "/>
<polygon fill="#C84139" points="15.139,30.382 13.788,29.866 9.399,27.252 13.299,28.743 13.418,28.82 "/>
<polygon fill="#CE2E21" points="16.062,31.219 13.789,29.865 15.14,30.382 "/>
<polygon fill="#D87A68" points="53.758,26.557 55.056,25.001 59.4,21.502 56.665,23.073 57.39,22.203 68.05,12.702 59.009,23.543 
	"/>
<polygon fill="#C84139" points="55.056,25.001 56.664,23.073 59.4,21.503 "/>
<path fill="#CE2E21" d="M48.568,25.245l1.85-3.152l-0.961,2.359L48.568,25.245z M50.38,28.495l2.819-3.379l-1.012,1.723l5.202-4.636
	l-3.632,4.353L50.38,28.495"/>
<polygon fill="#D87A68" points="47.811,17.005 47.895,16.908 47.959,16.645 "/>
<polygon fill="#C84139" points="46.204,20.951 47.812,17.005 47.895,16.907 47.37,19.087 "/>
<path fill="#CE2E21" d="M23.129,25.12l-1.874-2.232l1.502,1.304L23.129,25.12z M44.505,25.12l1.698-4.169l1.166-1.864l-0.901,3.738
	L44.505,25.12"/>
<path fill="#D87A68" d="M43.641,14.856l0.423-1.756l-0.108,1.252L43.641,14.856z M42.172,20.952l0.632-2.622l1.026-2.519
	l-0.143,1.666L42.172,20.952"/>
<polygon fill="#C84139" points="42.804,18.33 43.641,14.856 43.956,14.352 43.83,15.811 "/>
<polygon fill="#CE2E21" points="41.318,24.495 42.172,20.952 43.686,17.477 43.363,21.225 "/>
<polygon fill="#D87A68" points="24.756,21.968 23.18,19.441 24.259,20.727 "/>
<polygon fill="#CE2E21" points="26.254,24.37 24.756,21.968 24.259,20.727 25.865,22.64 "/>
<path fill="#D87A68" d="M39.301,12.767l0.14-1.624l0.078,1.123L39.301,12.767z M38.7,19.729l0.376-4.362l0.512-2.121l0.174,2.498
	L38.7,19.729"/>
<polygon fill="#C84139" points="39.3,12.767 39.076,15.366 39.587,13.246 39.519,12.265 "/>
<polygon fill="#CE2E21" points="38.38,23.433 38.7,19.729 39.761,15.744 40.033,19.64 "/>
<polygon fill="#D87A68" points="28.191,20.416 27.966,19.413 27.261,18.283 "/>
<polygon fill="#CE2E21" points="29.316,22.995 28.191,20.416 27.966,19.412 29.189,21.373 "/>
<path fill="#D87A68" d="M35.149,18.517L34.8,13.506l0.036-0.417l0.565,2.213L35.149,18.517z M12.131,22.41L9.7,20.203l1.257,0.811
	L12.131,22.41"/>
<polygon fill="#C84139" points="34.8,13.505 34.836,13.087 34.747,12.737 "/>
<polygon fill="#CE2E21" points="35.379,21.808 35.15,18.517 35.401,15.302 36.239,18.582 "/>
<polygon fill="#D87A68" points="17.053,21.471 16.959,21.39 10,13.115 14.416,16.95 "/>
<polygon fill="#CE2E21" points="17.11,21.569 17.053,21.471 16.959,21.389 "/>
<polygon fill="#D87A68" points="31.815,19.87 30.556,14.938 31.62,17.378 "/>
<polygon fill="#CE2E21" points="31.815,19.869 32.189,21.333 32.365,19.086 31.62,17.378 "/>
<path fill="#D87A68" d="M38.476,10.184l0.475-6.065l0.237,3.395L38.476,10.184z M43.583,11.495L44.5,8.053l-0.144,1.668
	L43.583,11.495 M23.569,12.426L23.5,12.253l0.048,0.076L23.569,12.426 M47.958,13.878l1.493-3.426l-0.407,1.689L47.958,13.878
	 M19.463,15.962l-1.813-3.109l1.087,1.295L19.463,15.962 M51.237,17.252l3.313-5.3l-1.109,2.723L51.237,17.252 M53.746,20.631
	l6.654-7.778l-2.276,3.876L53.746,20.631"/>
<polygon fill="#BE1622" points="39.223,79.203 38.427,75.903 37.394,62.389 36.263,66.935 35.629,64.307 35.254,69.196 
	35.054,71.794 33.229,79.134 33.156,78.179 34.806,60.983 32.288,66.836 32.128,64.745 31.546,67.085 30.677,70.583 27.931,76.965 
	27.993,76.322 32.162,59.52 29.157,64.187 29.253,63.182 28.146,65.757 23.474,73.011 23.735,71.961 29.857,57.721 26.209,61.991 
	26.316,61.557 25.512,62.805 19.164,70.235 19.36,69.779 27.944,55.921 17.284,64.573 18.453,62.685 26.256,53.952 15.696,59.911 
	18.331,56.962 24.85,51.59 15.146,55.255 15.158,55.245 18.191,52.745 16.972,53.205 23.893,49.003 15.661,50.761 17.129,49.87 
	12.801,50.794 23.5,46.415 9.55,47.052 23.331,43.714 9.55,42.552 23.331,41.239 9.502,37.927 16.441,38.245 16.385,38.223 
	23.275,38.539 12.377,34.198 16.629,34.995 15.012,34.033 23.444,35.614 16.061,31.219 13.419,28.819 13.359,28.765 23.331,32.577 
	12.131,22.409 10.957,21.013 23.387,29.033 17.11,21.569 17.053,21.471 14.416,16.949 21.256,22.888 23.129,25.12 22.757,24.192 
	25.806,26.839 19.463,15.961 18.736,14.147 23.18,19.441 26.254,24.37 25.865,22.641 29.294,26.727 23.569,12.425 23.547,12.328 
	27.261,18.283 29.316,22.995 29.189,21.373 32.107,26.052 28.6,10.452 30.556,14.937 31.815,19.87 32.189,21.334 32.365,19.086 
	34.863,24.815 33.55,8.052 34.747,12.739 34.8,13.505 35.15,18.517 35.379,21.808 36.239,18.581 37.449,23.319 38.476,10.183 
	39.187,7.514 39.44,11.143 39.3,12.767 38.38,23.433 40.033,19.639 40.32,23.746 43.583,11.494 44.355,9.721 44.064,13.1 
	41.318,24.495 43.363,21.225 43.019,25.208 47.957,13.877 49.043,12.141 47.958,16.645 47.811,17.005 44.505,25.12 46.468,22.826 
	45.663,26.164 51.237,17.251 53.441,14.674 50.418,22.094 48.568,25.245 49.457,24.453 48.531,26.727 53.746,20.63 58.123,16.729 
	53.199,25.116 50.38,28.495 59.008,23.543 54.395,29.074 50.38,32.308 53.786,30.991 53.913,30.941 59.118,28.929 53.82,33.195 
	55.756,32.446 50.318,35.62 57.721,33.867 53.763,36.177 59.47,34.826 50.193,38.745 55.388,38.255 53.65,38.989 63.269,38.082 
	50.38,41.558 66.859,42.537 50.318,44.37 62.697,46.89 53.65,46.639 55.708,47.398 50.193,47.245 58.274,50.224 53.031,49.284 
	57.295,51.579 49.505,50.182 52.295,51.684 58.157,56.137 48.63,52.807 53.165,56.253 57.676,60.941 52.178,58.019 49.374,55.864 
	50.095,56.912 47.193,55.37 53.645,62.075 56.162,65.735 52.377,62.825 47.519,57.608 48.586,59.911 45.443,57.495 51.649,66.521 
	53.301,70.088 50.559,67.142 45.325,59.352 46.201,62.462 43.38,59.432 48.395,70.255 49.465,74.056 48.326,72.361 43.357,60.477 
	43.765,65.571 40.943,61.37 44.418,73.719 44.661,76.745 43.34,73.587 40.544,61.997 40.226,66.138 38.755,62.62 39.107,67.005 
	39.484,71.708 39.644,73.715 "/>
<g>
	<defs>
		<rect id="SVGID_1_" y="0" width="133.498" height="87.372"/>
	</defs>
	<clipPath id="SVGID_2_">
		<use xlink:href="#SVGID_1_"  overflow="visible"/>
	</clipPath>
	<path clip-path="url(#SVGID_2_)" fill="#29235C" d="M96.851,46.989h-3.213c0-2.542-0.178-6.215-0.529-11.024
		c-0.354-4.808-0.541-7.69-0.565-8.647h-0.172c-1.138,3.703-2.581,7.722-4.331,12.057c-1.749,4.335-2.624,6.874-2.624,7.614h-2.306
		c0-0.797-0.815-3.381-2.444-7.75c-1.63-4.37-2.66-7.295-3.093-8.776c-0.434-1.481-0.729-2.53-0.889-3.145h-0.172
		c-0.033,1.561-0.258,4.711-0.674,9.451c-0.416,4.739-0.625,8.146-0.625,10.22h-2.939c0-0.113,0.389-3.25,1.162-9.409
		c0.775-6.157,1.162-10.438,1.162-12.843h4.496c0,1.254,0.91,4.387,2.735,9.4c1.822,5.013,2.734,8.049,2.734,9.109h0.17
		c0-1.06,1.025-4.104,3.076-9.135c2.051-5.03,3.076-8.154,3.076-9.374h4.393c0,2.405,0.262,6.665,0.785,12.784
		C96.589,43.639,96.851,46.796,96.851,46.989"/>
	<path clip-path="url(#SVGID_2_)" fill="#29235C" d="M116.148,30.258c0,2.598-0.984,4.54-2.957,5.828
		c-1.971,1.287-4.619,1.931-7.945,1.931c-0.422,0-0.788-0.012-1.094-0.035c0,2.484,0.09,5.486,0.273,9.007h-3.281
		c0.17-3.236,0.256-7.132,0.256-11.69c0-3.919-0.086-7.439-0.256-10.561h2.443c0.262,0,1.012-0.017,2.248-0.052
		c1.237-0.034,2.288-0.051,3.153-0.051c2.187,0,3.928,0.499,5.22,1.495C115.501,27.127,116.148,28.503,116.148,30.258
		 M113.294,31.249c0-2.928-2-4.392-5.998-4.392c-0.98,0-2.08,0.085-3.298,0.256c0.08,1.857,0.119,4.751,0.119,8.682
		c0.398,0.023,0.888,0.034,1.47,0.034C110.726,35.829,113.294,34.302,113.294,31.249"/>
	<path clip-path="url(#SVGID_2_)" fill="#29235C" d="M133.498,40.392c0,2.131-0.801,3.856-2.401,5.179
		c-1.601,1.321-3.695,1.983-6.281,1.983c-2.779,0-5.16-0.366-7.143-1.094l0.426-2.718c2.188,0.923,4.428,1.384,6.717,1.384
		c3.851,0,5.777-1.441,5.777-4.324c0-1.47-0.67-2.543-2.008-3.221c-1.339-0.678-3.05-1.017-5.136-1.017
		c-0.981,0-1.879,0.028-2.7,0.085l0.393-2.546c0.672,0.057,1.596,0.085,2.768,0.085c3.783,0,5.673-1.31,5.673-3.93
		c0-2.267-1.718-3.401-5.16-3.401c-2.211,0-4.136,0.342-5.777,1.025l0.41-2.649c1.516-0.535,3.772-0.803,6.768-0.803
		c2.199,0,3.851,0.476,4.957,1.427c1.105,0.952,1.658,2.156,1.658,3.615c0,2.449-1.236,4.17-3.709,5.161v0.171
		C131.908,35.419,133.498,37.282,133.498,40.392"/>
	<path clip-path="url(#SVGID_2_)" fill="#29235C" d="M78.767,58.489h-0.826c0-0.654-0.045-1.598-0.137-2.834
		c-0.09-1.236-0.139-1.979-0.144-2.225h-0.045c-0.293,0.953-0.664,1.987-1.114,3.1c-0.449,1.115-0.673,1.768-0.673,1.959h-0.594
		c0-0.205-0.209-0.869-0.629-1.994c-0.418-1.123-0.684-1.875-0.795-2.256c-0.111-0.381-0.188-0.65-0.229-0.809h-0.044
		c-0.008,0.403-0.067,1.211-0.172,2.43c-0.108,1.219-0.162,2.096-0.162,2.629h-0.756c0-0.029,0.099-0.836,0.299-2.42
		c0.199-1.584,0.298-2.684,0.298-3.303h1.157c0,0.323,0.234,1.129,0.703,2.418c0.468,1.289,0.703,2.071,0.703,2.342h0.045
		c0-0.271,0.263-1.055,0.791-2.35c0.527-1.293,0.791-2.095,0.791-2.41h1.129c0,0.619,0.066,1.715,0.201,3.287
		C78.699,57.628,78.767,58.438,78.767,58.489"/>
	<path clip-path="url(#SVGID_2_)" fill="#29235C" d="M84.09,56.274c0,0.75-0.217,1.334-0.647,1.756
		c-0.431,0.42-0.937,0.63-1.521,0.63c-0.545,0-1.012-0.187-1.403-0.558c-0.392-0.373-0.587-0.897-0.587-1.574
		c0-0.756,0.216-1.346,0.648-1.77c0.432-0.426,0.939-0.639,1.523-0.639c0.545,0,1.012,0.19,1.401,0.565
		C83.894,55.061,84.09,55.59,84.09,56.274 M83.328,56.428c0-0.457-0.113-0.865-0.344-1.221c-0.23-0.355-0.558-0.533-0.982-0.533
		c-0.422,0-0.746,0.168-0.973,0.506c-0.228,0.336-0.342,0.727-0.342,1.172c0,0.461,0.116,0.867,0.346,1.222
		c0.23,0.354,0.559,0.532,0.986,0.532c0.422,0,0.747-0.17,0.971-0.508C83.217,57.26,83.328,56.869,83.328,56.428"/>
	<path clip-path="url(#SVGID_2_)" fill="#29235C" d="M88.298,57.817l-0.043,0.588c-0.238,0.135-0.557,0.203-0.955,0.203
		c-0.758,0-1.338-0.211-1.74-0.629c-0.401-0.42-0.602-0.924-0.602-1.515c0-0.628,0.211-1.166,0.633-1.618
		c0.422-0.451,0.98-0.677,1.674-0.677c0.349,0,0.633,0.035,0.853,0.105l-0.119,0.69c-0.307-0.114-0.619-0.17-0.935-0.17
		c-0.416,0-0.749,0.144-0.995,0.433c-0.246,0.291-0.369,0.654-0.369,1.09c0,0.475,0.147,0.871,0.44,1.187
		c0.293,0.317,0.709,0.475,1.244,0.475C87.605,57.979,87.909,57.924,88.298,57.817"/>
	<path clip-path="url(#SVGID_2_)" fill="#29235C" d="M92.703,58.489h-0.797c-0.023-0.041-0.059-0.117-0.105-0.229
		c-0.188-0.613-0.387-1.037-0.602-1.275c-0.213-0.236-0.494-0.355-0.844-0.355c-0.119,0-0.275,0.003-0.464,0.009
		c0,0.676,0.021,1.293,0.064,1.85H89.17c0.043-0.586,0.064-1.256,0.064-2.008c0-0.848-0.052-1.558-0.158-2.133l0.871-0.117
		c-0.039,0.563-0.056,1.184-0.056,1.867c0.175,0.006,0.33,0.008,0.464,0.008c0.651,0,1.108-0.529,1.371-1.59l0.098-0.203h0.725
		c-0.03,0.068-0.08,0.193-0.151,0.375c-0.334,0.916-0.709,1.453-1.125,1.611v0.045c0.28,0.082,0.512,0.254,0.698,0.514
		c0.185,0.262,0.365,0.643,0.539,1.147C92.562,58.161,92.627,58.321,92.703,58.489"/>
	<path clip-path="url(#SVGID_2_)" fill="#29235C" d="M97.572,56.274c0,0.75-0.217,1.334-0.647,1.756
		c-0.431,0.42-0.937,0.63-1.521,0.63c-0.545,0-1.012-0.187-1.403-0.558c-0.392-0.373-0.587-0.897-0.587-1.574
		c0-0.756,0.216-1.346,0.648-1.77c0.432-0.426,0.939-0.639,1.523-0.639c0.545,0,1.012,0.19,1.401,0.565
		C97.376,55.061,97.572,55.59,97.572,56.274 M96.81,56.428c0-0.457-0.113-0.865-0.344-1.221c-0.23-0.355-0.558-0.533-0.982-0.533
		c-0.422,0-0.746,0.168-0.973,0.506c-0.228,0.336-0.342,0.727-0.342,1.172c0,0.461,0.116,0.867,0.346,1.222
		c0.231,0.354,0.559,0.532,0.986,0.532c0.422,0,0.747-0.17,0.971-0.508C96.699,57.26,96.81,56.869,96.81,56.428"/>
	<path clip-path="url(#SVGID_2_)" fill="#29235C" d="M102.037,57.255c0,0.41-0.168,0.723-0.502,0.937
		c-0.334,0.215-0.811,0.323-1.428,0.323c-0.328,0-0.836-0.008-1.521-0.026c0.04-0.402,0.062-1.074,0.062-2.017
		c0-0.875-0.051-1.596-0.154-2.158h0.457c0.437-0.032,0.881-0.047,1.332-0.047c1.043,0,1.564,0.322,1.564,0.966
		c0,0.475-0.213,0.799-0.637,0.975v0.045C101.761,56.358,102.037,56.692,102.037,57.255 M101.169,55.421
		c0-0.41-0.298-0.615-0.896-0.615c-0.293,0-0.631,0.013-1.014,0.041c0.024,0.424,0.036,0.832,0.036,1.224
		c0.365,0.016,0.673,0.024,0.925,0.024c0.303,0,0.539-0.065,0.709-0.193C101.089,55.78,101.169,55.62,101.169,55.421
		 M101.324,57.298c0-0.301-0.137-0.506-0.412-0.611c-0.17-0.065-0.436-0.096-0.797-0.096c-0.276,0-0.549,0.01-0.82,0.031
		c0,0.522,0.001,0.955,0.007,1.301c0.268,0.035,0.586,0.053,0.959,0.053C100.97,57.976,101.324,57.749,101.324,57.298"/>
	<path clip-path="url(#SVGID_2_)" fill="#29235C" d="M106.273,57.817l-0.045,0.588c-0.236,0.135-0.555,0.203-0.953,0.203
		c-0.76,0-1.34-0.211-1.74-0.629c-0.403-0.42-0.602-0.924-0.602-1.515c0-0.628,0.211-1.166,0.633-1.618
		c0.422-0.451,0.978-0.677,1.674-0.677c0.347,0,0.633,0.035,0.851,0.105l-0.117,0.69c-0.308-0.114-0.621-0.17-0.937-0.17
		c-0.416,0-0.746,0.144-0.993,0.433c-0.246,0.291-0.369,0.654-0.369,1.09c0,0.475,0.147,0.871,0.44,1.187
		c0.293,0.317,0.707,0.475,1.244,0.475C105.578,57.979,105.882,57.924,106.273,57.817"/>
	<path clip-path="url(#SVGID_2_)" fill="#29235C" d="M110.675,58.489h-0.795c-0.023-0.041-0.058-0.117-0.105-0.229
		c-0.188-0.613-0.389-1.037-0.602-1.275c-0.215-0.236-0.496-0.355-0.843-0.355c-0.122,0-0.276,0.003-0.467,0.009
		c0,0.676,0.021,1.293,0.066,1.85h-0.787c0.045-0.586,0.066-1.256,0.066-2.008c0-0.848-0.052-1.558-0.158-2.133l0.869-0.117
		c-0.037,0.563-0.056,1.184-0.056,1.867c0.176,0.006,0.332,0.008,0.467,0.008c0.65,0,1.107-0.529,1.371-1.59l0.095-0.203h0.725
		c-0.029,0.068-0.078,0.193-0.148,0.375c-0.334,0.916-0.709,1.453-1.125,1.611v0.045c0.277,0.082,0.509,0.254,0.697,0.514
		c0.185,0.262,0.365,0.643,0.537,1.147C110.535,58.161,110.599,58.321,110.675,58.489"/>
	<path clip-path="url(#SVGID_2_)" fill="#29235C" d="M115.126,58.489h-0.785c0.043-0.502,0.065-1.17,0.065-2.008
		c0-0.238,0.015-0.594,0.045-1.068h-0.045c-0.061,0.201-0.461,0.734-1.199,1.595c-0.7,0.823-1.051,1.317-1.051,1.481h-0.623
		c0.041-0.586,0.06-1.256,0.06-2.008c0-0.848-0.051-1.558-0.152-2.133l0.869-0.117c-0.037,0.541-0.057,1.231-0.057,2.068
		c0,0.297-0.009,0.672-0.027,1.125h0.045c0.066-0.183,0.465-0.714,1.195-1.589c0.686-0.825,1.028-1.319,1.028-1.487l0.625-0.117
		c-0.036,0.611-0.053,1.361-0.053,2.25C115.066,57.184,115.085,57.852,115.126,58.489"/>
	<path clip-path="url(#SVGID_2_)" fill="#29235C" d="M119.886,58.489h-0.787c0.045-0.502,0.067-1.17,0.067-2.008
		c0-0.238,0.015-0.594,0.044-1.068h-0.044c-0.061,0.201-0.461,0.734-1.2,1.595c-0.701,0.823-1.05,1.317-1.05,1.481h-0.624
		c0.041-0.586,0.061-1.256,0.061-2.008c0-0.848-0.051-1.558-0.154-2.133l0.871-0.117c-0.039,0.541-0.057,1.23-0.057,2.068
		c0,0.297-0.01,0.672-0.027,1.125h0.045c0.066-0.183,0.465-0.714,1.195-1.589c0.686-0.825,1.027-1.319,1.027-1.487l0.625-0.117
		c-0.035,0.611-0.052,1.361-0.052,2.25C119.826,57.184,119.845,57.852,119.886,58.489 M119.503,52.442
		c0,0.322-0.101,0.613-0.304,0.871c-0.203,0.26-0.551,0.391-1.043,0.391c-0.51,0-0.869-0.133-1.078-0.395
		c-0.207-0.261-0.311-0.555-0.311-0.877l0.633-0.082c0,0.586,0.252,0.879,0.756,0.879c0.295,0,0.496-0.076,0.601-0.227
		c0.106-0.152,0.159-0.369,0.159-0.652L119.503,52.442z"/>
	<path clip-path="url(#SVGID_2_)" fill="#29235C" d="M76.38,63.979c0,0.633-0.179,1.188-0.543,1.665
		c-0.361,0.476-0.865,0.714-1.509,0.714c-0.54,0-0.893-0.097-1.063-0.291H73.22c0,0.815,0.01,1.541,0.027,2.18h-0.826
		c0.067-0.779,0.102-1.742,0.102-2.887c0-1.412-0.074-2.506-0.221-3.279l0.774-0.109l0.066,0.435h0.043
		c0.285-0.332,0.744-0.496,1.381-0.496c0.558,0,1.002,0.203,1.326,0.611C76.218,62.933,76.38,63.417,76.38,63.979 M75.599,64.085
		c0-0.434-0.115-0.805-0.344-1.113c-0.228-0.309-0.549-0.463-0.963-0.463c-0.527,0-0.904,0.158-1.133,0.478
		c0.047,0.985,0.071,1.83,0.071,2.535c0.236,0.2,0.547,0.299,0.928,0.299c0.482,0,0.843-0.17,1.082-0.51
		C75.48,64.972,75.599,64.563,75.599,64.085"/>
	<path clip-path="url(#SVGID_2_)" fill="#29235C" d="M80.999,63.659c0,0.123-0.006,0.293-0.017,0.51l-3.02,0.053
		c0.03,0.427,0.196,0.785,0.496,1.074c0.303,0.289,0.703,0.433,1.201,0.433c0.446,0,0.862-0.054,1.252-0.162l-0.074,0.619
		c-0.287,0.114-0.703,0.172-1.244,0.172c-0.762,0-1.342-0.209-1.742-0.625c-0.401-0.416-0.6-0.922-0.6-1.519
		c0-0.639,0.182-1.19,0.547-1.65c0.365-0.463,0.854-0.694,1.469-0.694c0.566,0,0.996,0.168,1.291,0.502
		C80.853,62.706,80.999,63.136,80.999,63.659 M80.265,63.669c0-0.824-0.344-1.236-1.033-1.236c-0.703,0-1.117,0.427-1.242,1.283
		L80.265,63.669z"/>
	<path clip-path="url(#SVGID_2_)" fill="#29235C" d="M85.345,66.239h-0.764c0.041-0.527,0.061-1.168,0.061-1.92
		c0-0.596-0.012-1.164-0.035-1.705h-0.875c-0.084,0.328-0.18,0.646-0.285,0.959c-0.106,0.312-0.219,0.605-0.338,0.879
		c-0.121,0.273-0.246,0.525-0.379,0.754c-0.131,0.228-0.264,0.425-0.399,0.59c-0.134,0.164-0.271,0.291-0.41,0.38
		c-0.137,0.092-0.271,0.137-0.404,0.137l-0.043-0.703c0.072-0.006,0.158-0.053,0.258-0.143c0.097-0.089,0.201-0.214,0.31-0.373
		c0.112-0.16,0.223-0.349,0.34-0.57c0.115-0.219,0.229-0.459,0.34-0.721c0.111-0.259,0.217-0.537,0.318-0.832
		c0.102-0.295,0.19-0.597,0.266-0.908h1.441l0.594-0.082c-0.039,0.612-0.057,1.362-0.057,2.25
		C85.284,64.934,85.304,65.602,85.345,66.239"/>
	<path clip-path="url(#SVGID_2_)" fill="#29235C" d="M90.112,63.659c0,0.123-0.005,0.293-0.017,0.51l-3.018,0.053
		c0.03,0.427,0.194,0.785,0.496,1.074c0.301,0.289,0.702,0.433,1.2,0.433c0.445,0,0.863-0.054,1.252-0.162l-0.075,0.619
		c-0.287,0.114-0.701,0.172-1.244,0.172c-0.761,0-1.342-0.209-1.742-0.625c-0.398-0.416-0.6-0.922-0.6-1.519
		c0-0.639,0.184-1.19,0.547-1.65c0.366-0.463,0.856-0.694,1.471-0.694c0.564,0,0.996,0.168,1.289,0.502
		C89.966,62.706,90.112,63.136,90.112,63.659 M89.38,63.669c0-0.824-0.346-1.236-1.033-1.236c-0.703,0-1.117,0.427-1.244,1.283
		L89.38,63.669z"/>
	<path clip-path="url(#SVGID_2_)" fill="#29235C" d="M94.724,66.239h-0.787c0.043-0.502,0.066-1.17,0.066-2.008
		c0-0.238,0.014-0.594,0.043-1.068h-0.043c-0.062,0.201-0.463,0.734-1.201,1.595c-0.699,0.823-1.049,1.317-1.049,1.481h-0.625
		c0.041-0.586,0.063-1.256,0.063-2.008c0-0.848-0.053-1.558-0.155-2.133l0.869-0.117c-0.037,0.541-0.056,1.23-0.056,2.068
		c0,0.297-0.008,0.672-0.026,1.125h0.043c0.069-0.183,0.467-0.714,1.196-1.589c0.685-0.825,1.029-1.319,1.029-1.487l0.623-0.117
		c-0.035,0.611-0.053,1.361-0.053,2.25C94.661,64.934,94.683,65.602,94.724,66.239 M94.341,60.192c0,0.322-0.102,0.613-0.305,0.871
		c-0.205,0.26-0.552,0.391-1.045,0.391c-0.509,0-0.869-0.133-1.076-0.395c-0.209-0.261-0.312-0.555-0.312-0.877l0.633-0.082
		c0,0.586,0.251,0.879,0.755,0.879c0.297,0,0.496-0.076,0.602-0.227c0.105-0.152,0.158-0.369,0.158-0.652L94.341,60.192z"/>
	<path clip-path="url(#SVGID_2_)" fill="#29235C" d="M99.404,66.239h-0.77c0.04-0.561,0.059-1.205,0.063-1.934h-2.105
		c0,0.657,0.021,1.301,0.066,1.934h-0.77c0.043-0.586,0.067-1.256,0.067-2.008c0-0.848-0.053-1.558-0.158-2.133l0.851-0.117
		c-0.014,0.211-0.033,0.797-0.056,1.762h2.095c-0.017-0.656-0.066-1.205-0.144-1.645l0.851-0.117
		c-0.037,0.612-0.056,1.362-0.056,2.25C99.338,64.934,99.359,65.602,99.404,66.239"/>
	<path clip-path="url(#SVGID_2_)" fill="#29235C" d="M103.742,64.84c0,0.456-0.182,0.805-0.543,1.053
		c-0.362,0.248-0.776,0.371-1.239,0.371c-0.236,0-0.697-0.008-1.378-0.025c0.031-0.586,0.048-1.256,0.048-2.008
		c0-0.848-0.052-1.558-0.154-2.133l0.826-0.117c-0.023,0.369-0.035,0.924-0.035,1.664c0.205-0.055,0.402-0.082,0.594-0.082
		C103.115,63.563,103.742,63.989,103.742,64.84 M103.064,64.917c0-0.549-0.4-0.823-1.203-0.823c-0.153,0-0.352,0.022-0.594,0.067
		c0,0.521,0.006,1.025,0.018,1.515c0.216,0.036,0.447,0.053,0.689,0.053C102.701,65.729,103.064,65.458,103.064,64.917
		 M105.169,66.239h-0.759c0.041-0.586,0.06-1.256,0.06-2.008c0-0.848-0.051-1.558-0.154-2.133l0.844-0.117
		c-0.037,0.612-0.057,1.362-0.057,2.25C105.103,64.934,105.124,65.602,105.169,66.239"/>
	<path clip-path="url(#SVGID_2_)" fill="#29235C" d="M109.929,66.239h-0.787c0.043-0.502,0.066-1.17,0.066-2.008
		c0-0.238,0.014-0.594,0.043-1.068h-0.043c-0.062,0.201-0.462,0.734-1.201,1.595c-0.699,0.823-1.049,1.317-1.049,1.481h-0.625
		c0.041-0.586,0.063-1.256,0.063-2.008c0-0.848-0.053-1.558-0.154-2.133l0.869-0.117c-0.037,0.541-0.057,1.23-0.057,2.068
		c0,0.297-0.008,0.672-0.025,1.125h0.043c0.068-0.183,0.467-0.714,1.195-1.589c0.686-0.825,1.029-1.319,1.029-1.487l0.623-0.117
		c-0.035,0.611-0.052,1.361-0.052,2.25C109.867,64.934,109.888,65.602,109.929,66.239 M109.546,60.192
		c0,0.322-0.101,0.613-0.304,0.871c-0.205,0.26-0.553,0.391-1.045,0.391c-0.51,0-0.869-0.133-1.076-0.395
		c-0.209-0.261-0.313-0.555-0.313-0.877l0.633-0.082c0,0.586,0.252,0.879,0.756,0.879c0.297,0,0.496-0.076,0.601-0.227
		c0.106-0.152,0.159-0.369,0.159-0.652L109.546,60.192z"/>
	<path clip-path="url(#SVGID_2_)" fill="#29235C" d="M75.33,72.741c0,0.445-0.18,0.783-0.541,1.018
		c-0.363,0.232-0.783,0.349-1.26,0.349c-0.527,0-1-0.06-1.416-0.181l0.076-0.592c0.348,0.146,0.795,0.218,1.34,0.218
		c0.741,0,1.112-0.24,1.112-0.72c0-0.488-0.442-0.735-1.323-0.735c-0.267,0-0.517,0.01-0.752,0.028l0.075-0.58
		c0.24,0.017,0.474,0.025,0.699,0.025c0.789,0,1.181-0.24,1.181-0.724c0-0.389-0.345-0.584-1.037-0.584
		c-0.476,0-0.89,0.06-1.242,0.179l0.074-0.584c0.369-0.127,0.789-0.189,1.262-0.189c1.068,0,1.604,0.324,1.604,0.971
		c0,0.486-0.227,0.826-0.678,1.019v0.045c0.203,0.037,0.381,0.133,0.533,0.285C75.232,72.186,75.33,72.436,75.33,72.741"/>
	<path clip-path="url(#SVGID_2_)" fill="#29235C" d="M79.642,73.99l-0.691,0.025c-0.035-0.143-0.053-0.279-0.053-0.408h-0.043
		c-0.361,0.328-0.851,0.492-1.472,0.492c-0.336,0-0.627-0.1-0.87-0.297c-0.244-0.197-0.365-0.479-0.365-0.846
		c0-0.451,0.19-0.814,0.57-1.087c0.381-0.274,1.09-0.419,2.124-0.432l0.013-0.242c0-0.362-0.096-0.602-0.287-0.721
		c-0.193-0.121-0.484-0.18-0.873-0.18c-0.461,0-0.912,0.057-1.357,0.17l0.074-0.605c0.439-0.127,0.945-0.19,1.516-0.19
		c0.521,0,0.923,0.108,1.208,0.322c0.284,0.217,0.426,0.585,0.426,1.102c0,0.139-0.006,0.387-0.019,0.75
		c-0.014,0.361-0.02,0.602-0.02,0.723C79.523,73.099,79.562,73.573,79.642,73.99 M78.863,73.136
		c-0.014-0.445-0.021-0.844-0.021-1.199c-0.551,0-0.969,0.041-1.256,0.123c-0.481,0.146-0.721,0.426-0.721,0.84
		c0,0.398,0.281,0.597,0.844,0.597C78.191,73.497,78.576,73.376,78.863,73.136"/>
	<path clip-path="url(#SVGID_2_)" fill="#29235C" d="M84.207,72.755c0,0.41-0.166,0.723-0.5,0.937
		c-0.334,0.215-0.811,0.323-1.428,0.323c-0.328,0-0.836-0.008-1.521-0.026c0.041-0.402,0.062-1.074,0.062-2.017
		c0-0.875-0.053-1.596-0.154-2.158h0.457c0.436-0.032,0.881-0.047,1.332-0.047c1.043,0,1.564,0.322,1.564,0.966
		c0,0.475-0.212,0.799-0.638,0.975v0.045C83.932,71.858,84.207,72.192,84.207,72.755 M83.342,70.921c0-0.41-0.299-0.615-0.897-0.615
		c-0.293,0-0.631,0.013-1.015,0.041c0.023,0.424,0.035,0.832,0.035,1.224c0.367,0.016,0.676,0.024,0.927,0.024
		c0.303,0,0.538-0.065,0.708-0.193C83.262,71.28,83.342,71.12,83.342,70.921 M83.496,72.798c0-0.301-0.139-0.506-0.414-0.611
		c-0.17-0.065-0.434-0.096-0.795-0.096c-0.275,0-0.549,0.01-0.822,0.031c0,0.522,0.004,0.955,0.01,1.301
		c0.265,0.035,0.585,0.053,0.957,0.053C83.141,73.476,83.496,73.249,83.496,72.798"/>
	<path clip-path="url(#SVGID_2_)" fill="#29235C" d="M89.261,71.774c0,0.75-0.215,1.334-0.647,1.756
		c-0.429,0.42-0.937,0.63-1.519,0.63c-0.545,0-1.014-0.187-1.405-0.558c-0.39-0.373-0.587-0.897-0.587-1.574
		c0-0.756,0.216-1.346,0.648-1.77c0.434-0.426,0.939-0.639,1.523-0.639c0.545,0,1.012,0.19,1.403,0.565
		C89.065,70.561,89.261,71.09,89.261,71.774 M88.501,71.928c0-0.457-0.115-0.865-0.346-1.221c-0.23-0.355-0.556-0.533-0.982-0.533
		c-0.422,0-0.746,0.168-0.973,0.506c-0.226,0.336-0.342,0.727-0.342,1.172c0,0.461,0.116,0.867,0.346,1.223
		c0.231,0.353,0.559,0.531,0.986,0.531c0.422,0,0.747-0.17,0.971-0.508C88.388,72.76,88.501,72.369,88.501,71.928"/>
	<path clip-path="url(#SVGID_2_)" fill="#29235C" d="M94.521,73.427c0,0.152-0.033,0.512-0.103,1.076
		c-0.069,0.566-0.104,1.002-0.104,1.311h-0.521c0-0.373-0.006-0.989-0.014-1.846c-0.398-0.018-0.961-0.027-1.688-0.027
		c-0.466,0-0.964,0.009-1.494,0.027c-0.138,0.857-0.207,1.473-0.207,1.846h-0.523c0-0.264-0.002-0.637-0.006-1.12
		c-0.004-0.482-0.006-0.904-0.006-1.267h0.434c0.297-1.065,0.804-2.268,1.525-3.613h1.27l0.593-0.082
		c-0.037,0.611-0.056,1.361-0.056,2.25c0,0.357,0.025,0.837,0.078,1.445H94.521 M93.027,73.427
		c-0.031-0.572-0.049-1.053-0.049-1.445c0-0.586-0.012-1.125-0.035-1.618h-0.764c-0.181,0.329-0.396,0.766-0.646,1.315
		c-0.248,0.551-0.451,1.133-0.606,1.748H93.027z"/>
	<path clip-path="url(#SVGID_2_)" fill="#FFFFFF" d="M34.4,25.042H19.57V44.25c0,9.463,6.355,17.513,14.83,17.513
		c8.474,0,14.829-8.05,14.829-17.513V25.042H34.4"/>
	<polygon clip-path="url(#SVGID_2_)" fill="#BE1622" points="41.543,46.093 41.543,45.968 26.704,45.968 27.174,45.598 
		41.418,45.598 41.418,46.093 41.543,46.093 41.543,45.968 41.543,46.093 41.668,46.093 41.668,45.348 27.087,45.348 25.982,46.218 
		41.668,46.218 41.668,46.093 	"/>
	<polygon clip-path="url(#SVGID_2_)" fill="#BE1622" points="39.535,48.13 39.535,48.005 24.696,48.005 25.166,47.635 39.41,47.635 
		39.41,48.13 39.535,48.13 39.535,48.005 39.535,48.13 39.66,48.13 39.66,47.385 25.08,47.385 23.975,48.255 39.66,48.255 
		39.66,48.13 	"/>
	<polygon clip-path="url(#SVGID_2_)" fill="#BE1622" points="37.55,50.167 37.55,50.042 22.711,50.042 23.181,49.673 37.425,49.673 
		37.425,50.167 37.55,50.167 37.55,50.042 37.55,50.167 37.675,50.167 37.675,49.423 23.094,49.423 21.989,50.292 37.675,50.292 
		37.675,50.167 	"/>
	<path clip-path="url(#SVGID_2_)" fill="#211948" d="M33.499,37.556h2.086H33.499z"/>
	<polygon clip-path="url(#SVGID_2_)" fill="#BE1622" points="38.341,29.459 34.069,32.733 33.487,29.515 33.027,29.515 
		26.895,37.726 27.357,37.726 29.73,37.193 32.49,32.944 32.921,34.872 33.383,34.872 35.482,33.379 33.284,37.688 35.677,37.688 
		38.802,29.459 	"/>
	<path clip-path="url(#SVGID_2_)" fill="#BE1622" d="M41.819,35.984l0.008-0.111c0.002-0.118-0.003-0.235-0.019-0.351l-0.009-0.043
		l-0.023-0.11l-0.053-0.251l-0.059-0.148l-0.05-0.127c-0.071-0.157-0.152-0.309-0.255-0.45c-0.14-0.189-0.31-0.34-0.493-0.474
		l-0.058-0.057l-0.182-0.103l-0.103-0.058l-0.045-0.025c-0.094-0.043-0.192-0.079-0.291-0.109l-0.086-0.02l-0.082-0.018
		l-0.117-0.027c-0.098-0.015-0.196-0.025-0.297-0.028l-0.073-0.002h-0.461c-1.503,0-2.355,0.076-2.364,0.076l-0.042,0.005
		l-3.474,9.161l-2.107,1.255h0.462l3.357-0.456l1.814-4.703c0.343,0.012,0.831,0.024,1.453,0.024h0.461
		c0.065,0,0.148-0.003,0.243-0.01l0.094-0.01l0.234-0.029l0.137-0.026l0.254-0.061l0.158-0.047c0.093-0.03,0.186-0.067,0.281-0.108
		l0.153-0.067c0.118-0.058,0.235-0.129,0.351-0.208l0.08-0.05c0.141-0.102,0.276-0.223,0.404-0.361l0.095-0.122
		c0.072-0.086,0.145-0.167,0.209-0.267l0.14-0.264l0.103-0.195c0.051-0.119,0.098-0.246,0.14-0.382l0.021-0.071
		c0.031-0.115,0.056-0.23,0.072-0.346l0.01-0.126L41.819,35.984 M37.549,38.136c-0.106-0.004-0.22-0.006-0.313-0.012l-0.227-0.012
		l-0.066-0.001l1.407-3.853c0.044-0.007,0.129-0.016,0.232-0.025c0.426,0.026,0.915,0.141,1.187,0.519
		c0.265,0.37,0.277,0.929,0.031,1.665C39.336,37.816,38.347,38.095,37.549,38.136"/>
	<polygon clip-path="url(#SVGID_2_)" fill="#BE1622" points="46.262,43.994 39.509,43.994 46.359,39.188 37.159,39.188 
		36.836,39.936 41.749,39.936 37.471,44.74 41.179,44.74 32.562,53.637 32.646,53.738 33.452,53.738 46.088,44.74 46.468,44.457 
		47.068,43.994 	"/>
	<polygon clip-path="url(#SVGID_2_)" fill="#FFFFFF" points="45.134,39.32 38.284,44.126 45.874,44.126 45.247,44.608 
		33.157,53.212 41.49,44.608 37.765,44.608 42.043,39.803 37.037,39.803 37.245,39.32 	"/>
	<polygon clip-path="url(#SVGID_2_)" fill="#BE1622" points="45.134,39.32 45.077,39.238 37.968,44.226 45.58,44.226 45.188,44.528 
		33.987,52.498 41.726,44.508 37.988,44.508 42.266,39.703 37.189,39.703 37.311,39.42 45.134,39.42 45.134,39.32 45.077,39.238 
		45.134,39.32 45.134,39.22 37.18,39.22 36.946,39.763 36.885,39.903 41.82,39.903 37.542,44.708 41.253,44.708 33.085,53.143 
		33.215,53.294 45.307,44.689 46.168,44.026 38.601,44.026 45.451,39.22 45.134,39.22 	"/>
	<path clip-path="url(#SVGID_2_)" fill="#BE1622" d="M40.828,45.794c0-0.313-0.254-0.567-0.566-0.567
		c-0.314,0-0.568,0.254-0.568,0.567c0,0.312,0.254,0.566,0.568,0.566C40.574,46.36,40.828,46.106,40.828,45.794"/>
	<path clip-path="url(#SVGID_2_)" fill="#BE1622" d="M38.82,47.831c0-0.314-0.255-0.566-0.568-0.566s-0.567,0.252-0.567,0.566
		c0,0.312,0.254,0.566,0.567,0.566S38.82,48.143,38.82,47.831"/>
	<path clip-path="url(#SVGID_2_)" fill="#BE1622" d="M36.833,49.868c0-0.313-0.253-0.566-0.566-0.566S35.7,49.555,35.7,49.868
		c0,0.313,0.254,0.566,0.567,0.566S36.833,50.181,36.833,49.868"/>
	<path clip-path="url(#SVGID_2_)" fill="#FFFFFF" d="M40.792,34.472c0.438,0.593,0.557,1.364,0.328,2.117
		c-0.599,1.96-2.41,2.113-2.95,2.113c-1.172,0-1.939-0.043-1.948-0.044l-0.047-0.003l-1.828,4.737l-2.639,0.36l1.59-0.948
		l3.461-9.127c0.186-0.015,1-0.072,2.312-0.072C39.758,33.605,40.385,33.921,40.792,34.472 M39.927,36.459
		c0.258-0.778,0.24-1.378-0.051-1.785c-0.347-0.483-1.006-0.584-1.495-0.584c-0.313,0-0.544,0.041-0.553,0.043l-0.036,0.007
		l-1.503,4.113l0.101-0.007l0.08-0.003c0.08,0,0.181,0.007,0.295,0.013c0.158,0.01,0.338,0.021,0.535,0.021
		C38.66,38.277,39.519,37.681,39.927,36.459"/>
	<path clip-path="url(#SVGID_2_)" fill="#BE1622" d="M40.792,34.473l-0.08,0.059c0.278,0.378,0.422,0.83,0.422,1.306
		c0,0.237-0.036,0.481-0.109,0.722c-0.579,1.897-2.326,2.039-2.855,2.042c-1.169,0-1.935-0.043-1.942-0.043l-0.006,0.1l0.007-0.1
		l-0.121-0.009l-1.833,4.752l-2.094,0.285l1.198-0.714l3.474-9.16l-0.094-0.036l0.008,0.1c0.184-0.014,0.995-0.071,2.305-0.071
		c0.655,0,1.251,0.3,1.64,0.826l0.161-0.119c-0.426-0.576-1.084-0.908-1.801-0.907c-1.316,0-2.132,0.057-2.321,0.072l-0.063,0.005
		l-3.471,9.154l-1.981,1.18l3.183-0.433l1.849-4.793l-0.093-0.036l-0.007,0.1l0.047,0.003l0.001,0.001
		c0.011,0,0.78,0.043,1.954,0.043c0.551,0.003,2.425-0.16,3.046-2.183v-0.001c0.079-0.26,0.118-0.522,0.118-0.78
		c0-0.516-0.157-1.012-0.461-1.425L40.792,34.473 M40.022,36.491c0.123-0.372,0.186-0.708,0.186-1.007
		c0-0.338-0.082-0.632-0.25-0.867l-0.001-0.001c-0.384-0.527-1.076-0.624-1.576-0.626c-0.322,0-0.559,0.043-0.569,0.045H37.81
		l-0.038,0.008l-0.054,0.011l-1.576,4.31l0.253-0.018l0.078-0.002l-0.003-0.1v0.1c0.075,0,0.175,0.006,0.289,0.013
		c0.158,0.009,0.34,0.02,0.541,0.02C38.689,38.384,39.609,37.748,40.022,36.491l-0.19-0.063c-0.403,1.188-1.2,1.743-2.532,1.749
		c-0.194,0-0.371-0.01-0.529-0.02H36.77h0.001c-0.114-0.007-0.216-0.013-0.301-0.013h-0.002l-0.081,0.002h-0.002l-0.103,0.008
		l0.007,0.099l0.094,0.035l1.503-4.113l-0.094-0.034l0.02,0.098l0.036-0.008l-0.02-0.098l0.017,0.099
		c0.007-0.001,0.231-0.042,0.536-0.042c0.479-0.001,1.103,0.104,1.414,0.543l0.001,0.001l-0.001-0.001
		c0.14,0.196,0.213,0.444,0.213,0.751c0,0.271-0.057,0.587-0.176,0.944L40.022,36.491z"/>
	<polygon clip-path="url(#SVGID_2_)" fill="#FFFFFF" points="32.951,29.838 33.572,33.281 38.053,29.846 35.125,37.556 33.5,37.556 
		36.107,32.444 33.008,34.65 32.433,32.082 29.188,37.076 27.216,37.519 	"/>
	<polygon clip-path="url(#SVGID_2_)" fill="#BE1622" points="32.951,29.838 32.853,29.856 33.503,33.46 37.834,30.14 35.056,37.456 
		33.663,37.456 36.382,32.126 33.072,34.481 32.479,31.828 29.127,36.988 27.458,37.362 33.031,29.898 32.951,29.838 32.853,29.856 
		32.951,29.838 32.871,29.778 26.974,37.676 29.25,37.165 32.388,32.336 32.943,34.819 35.833,32.762 33.336,37.656 35.194,37.656 
		38.271,29.553 33.641,33.102 33.008,29.594 32.871,29.778 	"/>
</g>
</svg>
