<svg xmlns="http://www.w3.org/2000/svg" width="13" height="13" viewBox="0 0 13 13">
    <path fill="#000" fill-rule="nonzero" d="M12.671 11.261L10 8.591c.644-.93.966-1.966.966-3.108 0-.743-.144-1.453-.433-2.13A5.48 5.48 0 0 0 9.365 1.6 5.481 5.481 0 0 0 7.613.432 5.388 5.388 0 0 0 5.483 0C4.74 0 4.03.144 3.353.432A5.48 5.48 0 0 0 1.6 1.601C1.11 2.09.72 2.675.432 3.353A5.388 5.388 0 0 0 0 5.483c0 .742.144 1.452.432 2.13A5.48 5.48 0 0 0 1.6 9.365c.491.49 1.075.88 1.753 1.168a5.388 5.388 0 0 0 2.13.433A5.334 5.334 0 0 0 8.59 10l2.672 2.663c.186.197.42.296.7.296.27 0 .504-.099.701-.296a.958.958 0 0 0 .296-.7.954.954 0 0 0-.288-.702zM7.948 7.948a3.36 3.36 0 0 1-2.465 1.024 3.36 3.36 0 0 1-2.465-1.024 3.36 3.36 0 0 1-1.024-2.465c0-.96.341-1.782 1.024-2.465a3.36 3.36 0 0 1 2.465-1.024c.96 0 1.782.341 2.465 1.024a3.36 3.36 0 0 1 1.024 2.465 3.36 3.36 0 0 1-1.024 2.465z"/>
</svg>
