<?xml version="1.0" encoding="utf-8"?>
<!-- Generator: Adobe Illustrator 17.0.0, SVG Export Plug-In . SVG Version: 6.00 Build 0)  -->
<!DOCTYPE svg PUBLIC "-//W3C//DTD SVG 1.1//EN" "http://www.w3.org/Graphics/SVG/1.1/DTD/svg11.dtd">
<svg version="1.1" id="Слой_1" xmlns="http://www.w3.org/2000/svg" xmlns:xlink="http://www.w3.org/1999/xlink" x="0px" y="0px"
	 width="66.459px" height="85.781px" viewBox="0 0 66.459 85.781" enable-background="new 0 0 66.459 85.781" xml:space="preserve">
<g>
	<path fill="none" stroke="#FFC71E" stroke-width="2" stroke-miterlimit="10" d="M33.23,65.459c-8.248,0-16.497-3.147-22.79-9.44
		c-12.586-12.586-12.586-32.993,0-45.579c12.586-12.587,32.993-12.587,45.579,0c12.587,12.586,12.587,32.993,0,45.579
		C49.726,62.312,41.478,65.459,33.23,65.459"/>
	<circle fill="none" stroke="#FFC71E" stroke-width="2" stroke-miterlimit="10" cx="33.229" cy="33.23" r="15.459"/>
	<line fill="none" stroke="#FFC71E" stroke-width="2" stroke-miterlimit="10" x1="44.161" y1="44.161" x2="56.019" y2="56.019"/>
	<line fill="none" stroke="#FFC71E" stroke-width="2" stroke-miterlimit="10" x1="48.689" y1="33.229" x2="65.459" y2="33.229"/>
	<line fill="none" stroke="#FFC71E" stroke-width="2" stroke-miterlimit="10" x1="44.161" y1="22.298" x2="56.019" y2="10.44"/>
	<line fill="none" stroke="#FFC71E" stroke-width="2" stroke-miterlimit="10" x1="33.229" y1="17.77" x2="33.229" y2="1"/>
	<line fill="none" stroke="#FFC71E" stroke-width="2" stroke-miterlimit="10" x1="22.298" y1="22.298" x2="10.44" y2="10.44"/>
	<line fill="none" stroke="#FFC71E" stroke-width="2" stroke-miterlimit="10" x1="17.77" y1="33.229" x2="1" y2="33.229"/>
	<path fill="none" stroke="#FFC71E" stroke-width="2" stroke-miterlimit="10" d="M10.44,56.019L10.44,56.019
		c-3.837,3.837-3.837,10.059,0,13.896l5.137,5.137c2.225,2.226,2.225,5.834,0,8.06c-2.226,2.225-5.834,2.225-8.06,0"/>
	<line fill="none" stroke="#FFC71E" stroke-width="2" stroke-miterlimit="10" x1="22.298" y1="44.161" x2="10.44" y2="56.019"/>
	<line fill="none" stroke="#FFC71E" stroke-width="2" stroke-miterlimit="10" x1="33.229" y1="48.689" x2="33.229" y2="65.459"/>
</g>
</svg>
